<svg width="59" height="59" viewBox="0 0 59 59" fill="none" xmlns="http://www.w3.org/2000/svg">
<g id="Fly--icon">
<rect id="Rectangle 16" x="0.250977" y="0.244629" width="58.7488" height="57.9016" rx="28.9508" fill="#A835AD"/>
<path id="Vector" d="M10.0797 37.9936C9.64063 38.2022 9.44692 38.7272 9.64258 39.1759L11.648 43.5344C11.7465 43.7515 11.9263 43.9204 12.1474 44.0038C12.2442 44.0394 12.3469 44.0578 12.4502 44.0578C12.5794 44.0589 12.707 44.0309 12.8245 43.977L27.9765 36.8119L26.6041 51.3396C26.5776 51.6255 26.6865 51.9067 26.8977 52.0977C27.562 52.6544 28.3899 52.9715 29.2512 53C29.4888 52.9997 29.7249 52.9695 29.9552 52.9101C31.1852 52.5852 32.139 51.4755 32.7896 49.5802L38.7523 31.7048L50.5617 26.1278C54.0378 24.4858 55.8291 21.1561 54.6261 18.5572C53.9434 17.1989 52.6358 16.2748 51.1411 16.0937C49.4804 15.84 47.7831 16.1044 46.2747 16.8522L32.6467 23.3218L17.9943 17.5196C16.149 16.816 14.6876 16.8341 13.6627 17.5832C12.8027 18.2975 12.3134 19.3713 12.3344 20.4974C12.3433 20.7831 12.4854 21.0473 12.7176 21.2107L22.584 28.0773L16.9336 30.7844L7.45878 28.3478C7.07054 28.2511 6.66638 28.4283 6.4696 28.781L4.10801 33.0849C3.98548 33.313 3.96622 33.5837 4.05526 33.8273C4.14374 34.0711 4.33186 34.2641 4.57162 34.3574L11.5861 37.2903L10.0797 37.9936ZM14.1612 20.0464C14.2136 19.6649 14.4043 19.3177 14.6962 19.0718C15.2045 18.7016 16.1314 18.7559 17.3702 19.225L30.4188 24.3775L24.4647 27.1929L14.1612 20.0464ZM6.13997 33.0762L7.69073 30.288L16.8086 32.5797C17.0051 32.63 17.2125 32.611 17.3972 32.526L47.0325 18.5123C48.2107 17.924 49.5376 17.7098 50.8383 17.8985C51.7504 17.9836 52.5629 18.5165 53.0131 19.3242C53.7612 20.9487 52.2908 23.3218 49.8039 24.4948L39.5363 29.3679L40.1604 27.4995C40.3181 27.0188 40.0605 26.4994 39.5857 26.34C39.1104 26.1807 38.5977 26.4415 38.4403 26.9222L31.1048 49.0204C30.668 50.2751 30.1243 51.0242 29.5184 51.1861C29.1429 51.2593 28.7544 51.1847 28.4309 50.979L30.2136 32.0292C30.2602 31.531 29.8993 31.0888 29.4067 31.0416C28.9146 30.9938 28.4778 31.3598 28.4309 31.858L28.1549 34.7544L12.8599 41.9732L11.6039 39.2661L14.1168 38.0753C14.4403 37.9309 14.6488 37.607 14.6488 37.2496C14.6488 36.8918 14.4403 36.568 14.1168 36.4239L6.13997 33.0762Z" fill="white"/>
</g>
</svg>
