<svg width="57" height="55" viewBox="0 0 57 55" fill="none" xmlns="http://www.w3.org/2000/svg">
<g id="Fly--icon">
<rect id="Rectangle 16" x="1" width="55.1866" height="54.3908" rx="27.1954" fill="#A835AD"/>
<path id="Vector" d="M6.67572 36.7769C6.19363 37.0023 5.98093 37.5699 6.19577 38.0551L8.39783 42.767C8.50601 43.0016 8.70339 43.1843 8.94612 43.2744C9.05247 43.3129 9.16525 43.3327 9.27865 43.3327C9.42055 43.3339 9.56061 43.3037 9.68964 43.2454L26.3272 35.4993L24.8202 51.2049C24.7911 51.5141 24.9106 51.8181 25.1426 52.0246C25.872 52.6264 26.7811 52.9691 27.7269 53C27.9877 52.9997 28.2469 52.967 28.4998 52.9029C29.8504 52.5515 30.8977 51.3519 31.6121 49.3029L38.1594 29.9782L51.1265 23.949C54.9434 22.1738 56.9104 18.5742 55.5895 15.7646C54.8398 14.2961 53.404 13.2971 51.7628 13.1013C49.9392 12.827 48.0755 13.1129 46.4193 13.9212L31.4552 20.9155L15.3662 14.6428C13.3401 13.8821 11.7354 13.9017 10.61 14.7116C9.66573 15.4838 9.12847 16.6447 9.15146 17.8621C9.16127 18.1709 9.31726 18.4566 9.57225 18.6331L20.406 26.0566L14.2016 28.9832L3.79788 26.3489C3.37157 26.2445 2.92779 26.436 2.71172 26.8173L0.118599 31.4702C-0.0159456 31.7167 -0.0370927 32.0094 0.0606742 32.2727C0.157828 32.5364 0.364395 32.745 0.627661 32.8458L8.32979 36.0165L6.67572 36.7769ZM11.1574 17.3745C11.215 16.9621 11.4243 16.5867 11.7449 16.3209C12.303 15.9207 13.3208 15.9793 14.681 16.4865L29.0089 22.0568L22.471 25.1004L11.1574 17.3745ZM2.34977 31.4607L4.05256 28.4464L14.0643 30.924C14.2801 30.9784 14.5078 30.9579 14.7107 30.8659L47.2514 15.716C48.5451 15.08 50.0021 14.8484 51.4303 15.0525C52.4318 15.1444 53.324 15.7206 53.8183 16.5937C54.6397 18.35 53.0252 20.9155 50.2944 22.1836L39.0203 27.4518L39.7056 25.4319C39.8787 24.9122 39.5959 24.3507 39.0745 24.1784C38.5526 24.0061 37.9896 24.2881 37.8168 24.8077L29.7622 48.6978C29.2825 50.0541 28.6855 50.864 28.0202 51.0391C27.6079 51.1182 27.1813 51.0375 26.8261 50.8151L28.7836 30.3289C28.8348 29.7903 28.4385 29.3122 27.8976 29.2612C27.3572 29.2096 26.8776 29.6052 26.8261 30.1437L26.523 33.275L9.72856 41.0791L8.3494 38.1525L11.1086 36.8652C11.4638 36.7091 11.6928 36.359 11.6928 35.9725C11.6928 35.5858 11.4638 35.2357 11.1086 35.0799L2.34977 31.4607Z" fill="white"/>
</g>
</svg>
