<svg width="999" height="999" viewBox="0 0 999 999" fill="none" xmlns="http://www.w3.org/2000/svg">
<g id="wow-air-vector-logo 1">
<g id="circle">
<path id="Vector" fill-rule="evenodd" clip-rule="evenodd" d="M997.625 500.22C997.625 775.661 774.293 999 498.802 999C223.325 999 0 775.661 0 500.22C0 224.771 223.325 1.43939 498.802 1.43939C774.293 1.43939 997.625 224.771 997.625 500.22Z" fill="#991782"/>
</g>
<g id="air">
<path id="Vector_2" fill-rule="evenodd" clip-rule="evenodd" d="M811.614 673.337H819.639V697.023C826.213 682.174 840.127 671.389 856.702 672.023V680.888H855.846C836.5 680.888 819.639 695.458 819.639 722.682V756.952H811.614V673.337ZM775.854 651.498H785.862V640.466H775.854V651.498ZM776.81 756.952H784.878V673.337H776.81V756.952ZM679.198 732.704V732.288C679.198 714.969 694.112 705.115 715.768 705.115C727.401 705.115 735.45 706.64 743.478 708.713V705.115C743.478 688.307 733.134 679.553 715.907 679.553C705.72 679.553 697.37 682.31 689.683 686.27L686.696 679.266C695.877 674.998 704.911 672.023 716.412 672.023C727.738 672.023 736.743 675.095 742.787 681.214C748.377 686.764 751.345 694.452 751.345 704.846V756.952H743.478V743.059C737.678 751.033 727.401 758.911 711.464 758.911C695.877 758.911 679.198 750.106 679.198 732.704ZM743.614 725.682V716.118C736.568 714.328 727.244 712.394 715.256 712.394C697.574 712.394 687.695 720.182 687.695 731.902V732.217C687.695 744.298 699.157 751.33 711.972 751.33C729.03 751.33 743.614 740.925 743.614 725.682Z" fill="white"/>
</g>
<g id="wow">
<path id="Vector_3" fill-rule="evenodd" clip-rule="evenodd" d="M231.639 516.032C231.639 516.032 226.021 515.531 224.618 515.23C223.232 514.933 220.013 513.894 219.931 512.466C219.927 512.451 219.916 512.444 219.916 512.437V512.423V512.412C219.916 512.401 219.927 512.39 219.931 512.383C220.013 510.955 223.232 509.913 224.618 509.619C226.021 509.318 231.639 508.817 231.639 508.817L350.771 503.528L377.321 416.246C377.339 416.11 377.382 415.921 377.454 415.752C377.744 414.678 377.901 413.565 377.901 412.383C377.901 405.616 372.459 400.141 365.699 400.141H306.285C300.778 400.141 296.166 403.761 294.605 408.752C294.494 409.117 294.404 409.522 294.358 409.894L273.69 488.712L250.037 409.486L249.206 406.79C247.358 402.472 243.029 399.382 238.02 399.382H183.884C178.449 399.382 173.812 402.969 172.294 407.972L148.5 487.849L128.685 409.894C128.574 409.522 128.434 409.117 128.345 408.752C126.812 403.761 122.15 400.141 116.693 400.141H56.0694C49.3128 400.141 43.8487 405.616 43.8487 412.383C43.8487 413.679 44.0098 414.871 44.4144 415.949L102.711 610.482L102.929 611.295C104.584 616.05 109.174 619.509 114.523 619.509H171.896C177.375 619.509 181.969 615.907 183.53 610.933L210.728 526.183L236.949 610.303C236.974 610.482 237.035 610.629 237.057 610.751L237.35 611.488C237.397 611.649 237.461 611.821 237.511 612.011C239.356 616.397 243.749 619.509 248.791 619.509H306.579C311.724 619.509 316.232 616.229 317.947 611.649L318.502 609.938C318.502 609.902 318.502 609.791 318.527 609.744L345.672 520.386L231.639 516.032Z" fill="white"/>
<path id="Vector_4" fill-rule="evenodd" clip-rule="evenodd" d="M462.071 498.591C465.348 485.034 475.023 474.425 487.301 470.969C487.823 465.029 491.014 429.23 491.941 426.92C492.955 424.4 495.275 424.353 495.608 424.353H495.944H496.277C496.61 424.353 498.934 424.4 499.944 426.92C500.871 429.23 504.065 465.029 504.588 470.969C516.863 474.425 526.537 485.034 529.817 498.591L618.349 502.515C618.327 501.842 618.309 501.412 618.309 501.412C614.729 443.058 565.201 394.967 496.507 394.967C427.318 394.967 377.353 443.893 373.923 502.501L462.071 498.591Z" fill="white"/>
<path id="Vector_5" fill-rule="evenodd" clip-rule="evenodd" d="M527.851 524.908C522.308 538.339 510.124 547.688 495.944 547.688C481.765 547.688 469.58 538.339 464.037 524.908L374.331 521.482C380.279 577.698 428.918 623.079 495.729 623.079C562.616 623.079 611.381 577.354 617.793 521.471L527.851 524.908Z" fill="white"/>
<path id="Vector_6" fill-rule="evenodd" clip-rule="evenodd" d="M936.6 400.141H877.158C871.672 400.141 867.014 403.761 865.474 408.706C865.367 409.117 865.252 409.522 865.217 409.894L844.603 488.712L820.906 409.522L820.032 406.79C818.192 402.4 813.927 399.382 808.868 399.382H754.804C749.322 399.382 744.685 402.969 743.095 407.972L719.377 487.949L699.537 409.894C699.468 409.522 699.315 409.117 699.221 408.706C697.689 403.761 693.023 400.141 687.563 400.141H626.957C620.186 400.141 614.729 405.616 614.729 412.383C614.729 413.643 614.929 414.871 615.284 416.05L641.544 503.546L760.279 508.817C760.279 508.817 765.897 509.318 767.297 509.619C768.686 509.913 771.905 510.955 771.987 512.383C771.987 512.39 772.002 512.401 772.002 512.412V512.423V512.437C772.002 512.444 771.987 512.451 771.987 512.466C771.905 513.894 768.686 514.933 767.297 515.23C765.897 515.531 760.279 516.032 760.279 516.032L646.643 520.375L673.623 610.446L673.831 611.22C675.496 616.05 680.026 619.509 685.379 619.509H742.741C748.226 619.509 752.867 615.907 754.421 610.933L781.583 526.183L807.797 610.303C807.862 610.482 807.933 610.568 808.005 610.751L808.241 611.488C808.266 611.685 808.313 611.821 808.385 612.011C810.3 616.397 814.579 619.509 819.689 619.509H877.437C882.647 619.509 887.076 616.229 888.842 611.649L889.382 609.938C889.382 609.902 889.382 609.791 889.429 609.744L948.198 416.246C948.245 416.11 948.259 415.921 948.305 415.752C948.61 414.678 948.789 413.565 948.789 412.383C948.789 405.616 943.335 400.141 936.6 400.141Z" fill="white"/>
</g>
</g>
</svg>
