<svg width="55" height="55" viewBox="0 0 55 55" fill="none" xmlns="http://www.w3.org/2000/svg">
<path d="M3.66712 37.3999C1.64198 37.3999 0 35.7415 0 33.6947V26.5157C0 24.4694 1.64163 22.8105 3.66666 22.8105C4.04696 22.8105 4.35542 23.1213 4.35507 23.5058C4.3529 25.9667 4.35381 34.2442 4.35553 36.7046C4.35576 37.0891 4.04742 37.3999 3.66712 37.3999ZM45.298 16.3784C44.4539 7.2051 36.7938 0 27.4999 0C18.2061 0 10.546 7.2051 9.70186 16.3785C9.65294 16.9102 10.0704 17.3682 10.5988 17.3683C11.141 17.3684 11.4884 16.9788 11.5283 16.5462C12.2872 8.31564 19.1602 1.85263 27.4999 1.85263C35.8396 1.85263 42.7127 8.31564 43.4716 16.5462C43.5118 16.9819 43.8619 17.3684 44.4011 17.3683C44.9295 17.3682 45.3469 16.9101 45.298 16.3784ZM51.3332 22.8105C50.951 22.8105 50.6441 23.1227 50.6445 23.5058C50.6462 25.9662 50.647 34.2438 50.6449 36.7046C50.6446 37.0891 50.9529 37.3999 51.3333 37.3999C53.3556 37.3999 55 35.7439 55 33.6947V26.5157C54.9999 24.4694 53.3583 22.8105 51.3332 22.8105ZM35.7133 30.9629C35.855 30.4717 35.5759 29.9574 35.0899 29.8142C34.6041 29.6707 34.095 29.953 33.9533 30.444C33.1222 33.3237 30.4684 35.335 27.4999 35.335C24.5314 35.335 21.8778 33.3237 21.0466 30.444C20.9049 29.9531 20.396 29.6703 19.91 29.8142C19.4239 29.9574 19.1449 30.4717 19.2866 30.9629C20.3445 34.6279 23.7219 37.1877 27.4999 37.1877C31.278 37.1877 34.6554 34.6281 35.7133 30.9629ZM21.694 21.9224C20.6937 21.9224 19.8802 22.7456 19.8802 23.7565C19.8802 24.7673 20.6937 25.5894 21.694 25.5894C22.6943 25.5894 23.509 24.7673 23.509 23.7565C23.509 22.7456 22.6943 21.9224 21.694 21.9224ZM33.3059 21.9803C32.3365 21.9803 31.5482 22.7769 31.5482 23.7565C31.5482 24.7349 32.3365 25.5315 33.3059 25.5315C34.2741 25.5315 35.0624 24.7349 35.0624 23.7565C35.0624 22.7769 34.2741 21.9803 33.3059 21.9803ZM11.6875 19.221H9.85415C7.83175 19.221 6.18749 20.8838 6.18749 22.9263V37.2842C6.18749 39.3267 7.83175 40.9894 9.85415 40.9894H11.6875C13.7099 40.9894 15.3541 39.3267 15.3541 37.2842V22.9263C15.3541 20.8838 13.7099 19.221 11.6875 19.221ZM45.1457 19.221H43.3124C41.29 19.221 39.6457 20.8838 39.6457 22.9263V37.2842C39.6457 39.3267 41.29 40.9894 43.3124 40.9894H45.1457C47.1681 40.9894 48.8124 39.3267 48.8124 37.2842V22.9263C48.8124 20.8838 47.1681 19.221 45.1457 19.221ZM51.4226 39.2511C50.9278 39.2617 50.5311 39.6683 50.5311 40.1685V40.8737C50.5311 45.9897 46.4271 50.1369 41.3645 50.1369H39.6515C39.2378 48.4116 37.6978 47.1264 35.8645 47.1264C33.6231 47.1264 31.8183 49.0481 31.9785 51.3469C32.1121 53.2639 33.6346 54.8252 35.5297 54.9858C37.508 55.1535 39.2129 53.8187 39.6515 51.9895H41.3645C47.4396 51.9895 52.3645 47.0128 52.3645 40.8737V40.1681C52.3645 39.6779 51.9778 39.239 51.4226 39.2511Z" fill="#B122B7"/>
</svg>
